<svg width="90" height="30" viewBox="0 0 90 30" fill="none" xmlns="http://www.w3.org/2000/svg">
<path d="M14.1158 27.619H21.524V30H11.8633V0H14.1158V27.619Z" fill="#3B1D8F"/>
<path d="M2.2525 0H0V30H2.2525V0Z" fill="#3B1D8F"/>
<path d="M25.5284 15.0265C25.5284 21.9577 30.8843 27.619 37.4416 27.619V30C29.5829 30 23.2258 23.2804 23.2258 15.0265C23.2759 6.71958 29.6329 0 37.4917 0V2.38095C30.8843 2.38095 25.5284 8.04233 25.5284 15.0265Z" fill="#3B1D8F"/>
<path d="M39.0934 14.9736C39.0934 15.9259 38.3927 16.6667 37.4917 16.6667C36.5907 16.6667 35.8899 15.9259 35.8899 14.9736C35.8899 14.0212 36.5907 13.2804 37.4917 13.2804C38.3426 13.2804 39.0934 14.0741 39.0934 14.9736Z" fill="#3B1D8F"/>
<path d="M50.4765 13.1905H50.0419V8.046H50.4765V13.1905ZM52.1796 9.36745L52.1937 10.0211C52.3374 9.78556 52.5164 9.60654 52.7307 9.48405C52.9451 9.35921 53.1818 9.29679 53.4409 9.29679C53.8508 9.29679 54.1558 9.41221 54.3561 9.64305C54.5563 9.87389 54.6576 10.2202 54.6599 10.6818V13.1905H54.2395V10.6783C54.2371 10.3368 54.1641 10.0824 54.0204 9.91511C53.8791 9.74787 53.6518 9.66425 53.3385 9.66425C53.077 9.66425 52.845 9.74669 52.6424 9.91158C52.4422 10.0741 52.2938 10.2944 52.1972 10.5723V13.1905H51.7768V9.36745H52.1796ZM56.4124 8.38873V9.36745H57.2039V9.71372H56.4124V12.2612C56.4124 12.4732 56.4501 12.631 56.5255 12.7347C56.6032 12.8383 56.7316 12.8901 56.9106 12.8901C56.9813 12.8901 57.0955 12.8784 57.2534 12.8548L57.271 13.2011C57.1603 13.2411 57.0096 13.2611 56.8188 13.2611C56.529 13.2611 56.3182 13.1775 56.1863 13.0103C56.0544 12.8407 55.9884 12.5922 55.9884 12.2648V9.71372H55.2853V9.36745H55.9884V8.38873H56.4124ZM59.5606 13.2611C59.2355 13.2611 58.9411 13.1811 58.6773 13.0209C58.4158 12.8607 58.2121 12.6381 58.066 12.3531C57.92 12.0657 57.847 11.7442 57.847 11.3885V11.2366C57.847 10.8691 57.9176 10.5382 58.0589 10.2437C58.2026 9.94927 58.4017 9.71843 58.6561 9.55119C58.9105 9.38159 59.1861 9.29679 59.4829 9.29679C59.9469 9.29679 60.3144 9.45579 60.5853 9.77378C60.8585 10.0894 60.9951 10.5217 60.9951 11.0705V11.3072H58.2674V11.3885C58.2674 11.8219 58.3911 12.1835 58.6384 12.4732C58.8881 12.7606 59.2014 12.9043 59.5783 12.9043C59.8044 12.9043 60.0034 12.8631 60.1754 12.7806C60.3497 12.6982 60.5075 12.5663 60.6489 12.3849L60.9138 12.5863C60.6029 13.0362 60.1518 13.2611 59.5606 13.2611ZM59.4829 9.65718C59.1649 9.65718 58.8963 9.77378 58.6773 10.007C58.4606 10.2402 58.3287 10.5535 58.2815 10.9468H60.5747V10.9009C60.5629 10.5334 60.4581 10.2343 60.2602 10.0034C60.0623 9.7726 59.8032 9.65718 59.4829 9.65718ZM63.585 9.72785C63.4955 9.71136 63.4001 9.70312 63.2988 9.70312C63.035 9.70312 62.8112 9.77732 62.6275 9.92571C62.4461 10.0718 62.3166 10.2849 62.2388 10.5652V13.1905H61.8184V9.36745H62.2318L62.2388 9.97518C62.4626 9.52292 62.8218 9.29679 63.3165 9.29679C63.4343 9.29679 63.5273 9.3121 63.5956 9.34272L63.585 9.72785ZM64.6591 9.36745L64.6733 10.0211C64.817 9.78556 64.996 9.60654 65.2103 9.48405C65.4247 9.35921 65.6614 9.29679 65.9205 9.29679C66.3304 9.29679 66.6354 9.41221 66.8356 9.64305C67.0359 9.87389 67.1372 10.2202 67.1395 10.6818V13.1905H66.719V10.6783C66.7167 10.3368 66.6437 10.0824 66.5 9.91511C66.3587 9.74787 66.1313 9.66425 65.8181 9.66425C65.5566 9.66425 65.3246 9.74669 65.122 9.91158C64.9218 10.0741 64.7734 10.2944 64.6768 10.5723V13.1905H64.2563V9.36745H64.6591ZM70.6481 13.1905C70.6057 13.0703 70.5786 12.8925 70.5668 12.6569C70.4184 12.8501 70.2288 12.9997 69.9979 13.1057C69.7695 13.2093 69.5268 13.2611 69.2701 13.2611C68.9026 13.2611 68.6046 13.1587 68.3762 12.9537C68.15 12.7488 68.037 12.4897 68.037 12.1764C68.037 11.8042 68.1913 11.5098 68.4998 11.2931C68.8108 11.0764 69.243 10.968 69.7965 10.968H70.5633V10.5334C70.5633 10.2602 70.4785 10.0458 70.3089 9.89038C70.1416 9.73256 69.8967 9.65365 69.5739 9.65365C69.2795 9.65365 69.0357 9.72903 68.8426 9.87978C68.6494 10.0305 68.5528 10.2119 68.5528 10.4239L68.1288 10.4204C68.1288 10.1165 68.2702 9.85387 68.5528 9.63245C68.8355 9.40868 69.1829 9.29679 69.5951 9.29679C70.0215 9.29679 70.3572 9.40396 70.6021 9.61832C70.8495 9.83032 70.9767 10.1271 70.9837 10.5087V12.3178C70.9837 12.6876 71.0226 12.9643 71.1003 13.1481V13.1905H70.6481ZM69.3195 12.8866C69.6022 12.8866 69.8543 12.8183 70.0757 12.6817C70.2994 12.5451 70.462 12.3625 70.5633 12.134V11.2931H69.8071C69.3855 11.2978 69.0557 11.3755 68.8178 11.5263C68.5799 11.6747 68.461 11.8796 68.461 12.1411C68.461 12.3554 68.5399 12.5333 68.6977 12.6746C68.8579 12.8159 69.0652 12.8866 69.3195 12.8866ZM72.7716 8.38873V9.36745H73.563V9.71372H72.7716V12.2612C72.7716 12.4732 72.8093 12.631 72.8846 12.7347C72.9624 12.8383 73.0907 12.8901 73.2698 12.8901C73.3404 12.8901 73.4547 12.8784 73.6125 12.8548L73.6302 13.2011C73.5195 13.2411 73.3687 13.2611 73.1779 13.2611C72.8882 13.2611 72.6774 13.1775 72.5454 13.0103C72.4135 12.8407 72.3476 12.5922 72.3476 12.2648V9.71372H71.6445V9.36745H72.3476V8.38873H72.7716ZM74.9127 13.1905H74.4888V9.36745H74.9127V13.1905ZM74.4146 8.26153C74.4146 8.18145 74.4405 8.11431 74.4923 8.06014C74.5441 8.0036 74.6148 7.97534 74.7043 7.97534C74.7938 7.97534 74.8645 8.0036 74.9163 8.06014C74.9705 8.11431 74.9975 8.18145 74.9975 8.26153C74.9975 8.34162 74.9705 8.40875 74.9163 8.46293C74.8645 8.51711 74.7938 8.5442 74.7043 8.5442C74.6148 8.5442 74.5441 8.51711 74.4923 8.46293C74.4405 8.40875 74.4146 8.34162 74.4146 8.26153ZM75.8314 11.2224C75.8314 10.855 75.9021 10.524 76.0434 10.2296C76.1871 9.93514 76.3885 9.70665 76.6476 9.54412C76.9091 9.37923 77.2047 9.29679 77.5345 9.29679C78.0432 9.29679 78.4555 9.47581 78.7711 9.83385C79.0867 10.1895 79.2446 10.6618 79.2446 11.2507V11.339C79.2446 11.7088 79.1727 12.0422 79.029 12.339C78.8877 12.6334 78.6875 12.8607 78.4284 13.0209C78.1693 13.1811 77.8736 13.2611 77.5415 13.2611C77.0351 13.2611 76.6229 13.0833 76.3049 12.7276C75.9892 12.3696 75.8314 11.8961 75.8314 11.3072V11.2224ZM76.2554 11.339C76.2554 11.796 76.3732 12.1717 76.6087 12.4662C76.8466 12.7582 77.1576 12.9043 77.5415 12.9043C77.9231 12.9043 78.2317 12.7582 78.4672 12.4662C78.7051 12.1717 78.8241 11.7842 78.8241 11.3037V11.2224C78.8241 10.9303 78.7699 10.663 78.6616 10.4204C78.5532 10.1778 78.4013 9.99049 78.2058 9.85858C78.0103 9.72432 77.7865 9.65718 77.5345 9.65718C77.1576 9.65718 76.8502 9.80558 76.6123 10.1024C76.3744 10.3968 76.2554 10.7831 76.2554 11.2613V11.339ZM80.5236 9.36745L80.5377 10.0211C80.6814 9.78556 80.8605 9.60654 81.0748 9.48405C81.2892 9.35921 81.5259 9.29679 81.785 9.29679C82.1949 9.29679 82.4999 9.41221 82.7001 9.64305C82.9003 9.87389 83.0016 10.2202 83.004 10.6818V13.1905H82.5835V10.6783C82.5812 10.3368 82.5081 10.0824 82.3645 9.91511C82.2231 9.74787 81.9958 9.66425 81.6825 9.66425C81.4211 9.66425 81.1891 9.74669 80.9865 9.91158C80.7863 10.0741 80.6379 10.2944 80.5413 10.5723V13.1905H80.1208V9.36745H80.5236ZM86.5125 13.1905C86.4701 13.0703 86.4431 12.8925 86.4313 12.6569C86.2829 12.8501 86.0933 12.9997 85.8624 13.1057C85.6339 13.2093 85.3913 13.2611 85.1346 13.2611C84.7671 13.2611 84.4691 13.1587 84.2406 12.9537C84.0145 12.7488 83.9014 12.4897 83.9014 12.1764C83.9014 11.8042 84.0557 11.5098 84.3643 11.2931C84.6752 11.0764 85.1075 10.968 85.661 10.968H86.4277V10.5334C86.4277 10.2602 86.3429 10.0458 86.1734 9.89038C86.0061 9.73256 85.7611 9.65365 85.4384 9.65365C85.144 9.65365 84.9002 9.72903 84.707 9.87978C84.5139 10.0305 84.4173 10.2119 84.4173 10.4239L83.9933 10.4204C83.9933 10.1165 84.1346 9.85387 84.4173 9.63245C84.7 9.40868 85.0474 9.29679 85.4596 9.29679C85.886 9.29679 86.2216 9.40396 86.4666 9.61832C86.7139 9.83032 86.8411 10.1271 86.8482 10.5087V12.3178C86.8482 12.6876 86.8871 12.9643 86.9648 13.1481V13.1905H86.5125ZM85.184 12.8866C85.4667 12.8866 85.7187 12.8183 85.9402 12.6817C86.1639 12.5451 86.3265 12.3625 86.4277 12.134V11.2931H85.6716C85.25 11.2978 84.9202 11.3755 84.6823 11.5263C84.4444 11.6747 84.3254 11.8796 84.3254 12.1411C84.3254 12.3554 84.4043 12.5333 84.5622 12.6746C84.7223 12.8159 84.9296 12.8866 85.184 12.8866ZM88.4523 13.1905H88.0283V7.76334H88.4523V13.1905ZM50.3846 20.823H52.9251V21.1905H49.9465V16.046H50.3846V20.823ZM55.144 21.2611C54.8189 21.2611 54.5245 21.1811 54.2607 21.0209C53.9992 20.8607 53.7954 20.6381 53.6494 20.3531C53.5034 20.0657 53.4303 19.7442 53.4303 19.3885V19.2366C53.4303 18.8691 53.501 18.5382 53.6423 18.2437C53.786 17.9493 53.9851 17.7184 54.2395 17.5512C54.4939 17.3816 54.7695 17.2968 55.0663 17.2968C55.5303 17.2968 55.8978 17.4558 56.1686 17.7738C56.4419 18.0894 56.5785 18.5217 56.5785 19.0705V19.3072H53.8508V19.3885C53.8508 19.8219 53.9745 20.1835 54.2218 20.4732C54.4715 20.7606 54.7848 20.9043 55.1617 20.9043C55.3878 20.9043 55.5868 20.8631 55.7588 20.7806C55.9331 20.6982 56.0909 20.5663 56.2322 20.3849L56.4972 20.5863C56.1863 21.0362 55.7352 21.2611 55.144 21.2611ZM55.0663 17.6572C54.7483 17.6572 54.4797 17.7738 54.2607 18.007C54.044 18.2402 53.912 18.5535 53.8649 18.9468H56.158V18.9009C56.1463 18.5334 56.0414 18.2343 55.8436 18.0034C55.6457 17.7726 55.3866 17.6572 55.0663 17.6572ZM57.2322 19.2436C57.2322 18.6453 57.3641 18.1719 57.6279 17.8232C57.8941 17.4723 58.2545 17.2968 58.7091 17.2968C59.2296 17.2968 59.6254 17.5041 59.8963 17.9186L59.9175 17.3675H60.3132V21.1127C60.3132 21.605 60.1754 21.9949 59.8998 22.2823C59.6242 22.5696 59.2508 22.7133 58.7797 22.7133C58.5136 22.7133 58.2592 22.6533 58.0166 22.5331C57.7763 22.4153 57.5867 22.2575 57.4477 22.0597L57.6844 21.8053C57.9836 22.1727 58.3393 22.3565 58.7515 22.3565C59.1048 22.3565 59.3804 22.2516 59.5783 22.042C59.7761 21.8347 59.8786 21.5462 59.8857 21.1763V20.6958C59.6148 21.0727 59.2202 21.2611 58.702 21.2611C58.2592 21.2611 57.9035 21.0845 57.635 20.7311C57.3664 20.3778 57.2322 19.9008 57.2322 19.3002V19.2436ZM57.6597 19.3178C57.6597 19.8054 57.7574 20.1906 57.953 20.4732C58.1485 20.7535 58.4241 20.8937 58.7797 20.8937C59.3003 20.8937 59.669 20.6605 59.8857 20.1941V18.4168C59.7867 18.1719 59.6442 17.9858 59.4581 17.8586C59.272 17.729 59.0483 17.6643 58.7868 17.6643C58.4311 17.6643 58.1543 17.8044 57.9565 18.0847C57.7586 18.3627 57.6597 18.7737 57.6597 19.3178ZM63.8288 21.1905C63.7864 21.0703 63.7593 20.8925 63.7475 20.6569C63.5992 20.8501 63.4095 20.9997 63.1787 21.1057C62.9502 21.2093 62.7076 21.2611 62.4508 21.2611C62.0834 21.2611 61.7854 21.1587 61.5569 20.9537C61.3308 20.7488 61.2177 20.4897 61.2177 20.1764C61.2177 19.8042 61.372 19.5098 61.6806 19.2931C61.9915 19.0764 62.4237 18.968 62.9773 18.968H63.744V18.5334C63.744 18.2602 63.6592 18.0458 63.4896 17.8904C63.3224 17.7326 63.0774 17.6537 62.7547 17.6537C62.4603 17.6537 62.2165 17.729 62.0233 17.8798C61.8301 18.0305 61.7336 18.2119 61.7336 18.4239L61.3096 18.4204C61.3096 18.1165 61.4509 17.8539 61.7336 17.6325C62.0162 17.4087 62.3637 17.2968 62.7759 17.2968C63.2022 17.2968 63.5379 17.404 63.7829 17.6183C64.0302 17.8303 64.1574 18.1271 64.1645 18.5087V20.3178C64.1645 20.6876 64.2033 20.9643 64.2811 21.1481V21.1905H63.8288ZM62.5003 20.8866C62.783 20.8866 63.035 20.8183 63.2564 20.6817C63.4802 20.5451 63.6427 20.3625 63.744 20.134V19.2931H62.9879C62.5663 19.2978 62.2365 19.3755 61.9986 19.5263C61.7607 19.6747 61.6417 19.8796 61.6417 20.1411C61.6417 20.3554 61.7206 20.5333 61.8784 20.6746C62.0386 20.8159 62.2459 20.8866 62.5003 20.8866ZM65.7686 21.1905H65.3446V15.7633H65.7686V21.1905ZM72.4218 19.5864C72.3629 20.1281 72.1686 20.5427 71.8388 20.8301C71.5114 21.1175 71.0744 21.2611 70.5279 21.2611C70.1463 21.2611 69.8083 21.1657 69.5139 20.9749C69.2218 20.7841 68.9957 20.5144 68.8355 20.1658C68.6753 19.8148 68.594 19.4144 68.5917 18.9645V18.2967C68.5917 17.8397 68.6718 17.4346 68.832 17.0813C68.9921 16.7279 69.2218 16.4559 69.5209 16.2651C69.8225 16.0719 70.1687 15.9753 70.5597 15.9753C71.1109 15.9753 71.5455 16.1249 71.8635 16.4241C72.1839 16.7209 72.37 17.1319 72.4218 17.6572H71.9837C71.8753 16.7833 71.4007 16.3463 70.5597 16.3463C70.0933 16.3463 69.7212 16.5206 69.4432 16.8693C69.1676 17.2179 69.0298 17.6996 69.0298 18.3144V18.9433C69.0298 19.5369 69.1641 20.0104 69.4326 20.3637C69.7035 20.717 70.0686 20.8937 70.5279 20.8937C70.9826 20.8937 71.3253 20.7853 71.5561 20.5686C71.787 20.3496 71.9295 20.0221 71.9837 19.5864H72.4218ZM74.8598 21.2611C74.5347 21.2611 74.2402 21.1811 73.9764 21.0209C73.715 20.8607 73.5112 20.6381 73.3652 20.3531C73.2191 20.0657 73.1461 19.7442 73.1461 19.3885V19.2366C73.1461 18.8691 73.2168 18.5382 73.3581 18.2437C73.5018 17.9493 73.7008 17.7184 73.9552 17.5512C74.2096 17.3816 74.4852 17.2968 74.782 17.2968C75.2461 17.2968 75.6135 17.4558 75.8844 17.7738C76.1576 18.0894 76.2943 18.5217 76.2943 19.0705V19.3072H73.5666V19.3885C73.5666 19.8219 73.6902 20.1835 73.9376 20.4732C74.1872 20.7606 74.5005 20.9043 74.8774 20.9043C75.1035 20.9043 75.3026 20.8631 75.4745 20.7806C75.6489 20.6982 75.8067 20.5663 75.948 20.3849L76.213 20.5863C75.9021 21.0362 75.451 21.2611 74.8598 21.2611ZM74.782 17.6572C74.464 17.6572 74.1955 17.7738 73.9764 18.007C73.7597 18.2402 73.6278 18.5535 73.5807 18.9468H75.8738V18.9009C75.862 18.5334 75.7572 18.2343 75.5593 18.0034C75.3615 17.7726 75.1024 17.6572 74.782 17.6572ZM77.5203 17.3675L77.5345 18.0211C77.6781 17.7856 77.8572 17.6065 78.0715 17.4841C78.2859 17.3592 78.5226 17.2968 78.7817 17.2968C79.1916 17.2968 79.4966 17.4122 79.6968 17.6431C79.897 17.8739 79.9983 18.2202 80.0007 18.6818V21.1905H79.5802V18.6783C79.5779 18.3368 79.5049 18.0824 79.3612 17.9151C79.2198 17.7479 78.9925 17.6643 78.6792 17.6643C78.4178 17.6643 78.1858 17.7467 77.9832 17.9116C77.783 18.0741 77.6346 18.2944 77.538 18.5723V21.1905H77.1175V17.3675H77.5203ZM81.7532 16.3887V17.3675H82.5447V17.7137H81.7532V20.2612C81.7532 20.4732 81.7909 20.631 81.8663 20.7347C81.944 20.8383 82.0724 20.8901 82.2514 20.8901C82.3221 20.8901 82.4363 20.8784 82.5941 20.8548L82.6118 21.2011C82.5011 21.2411 82.3503 21.2611 82.1595 21.2611C81.8698 21.2611 81.659 21.1775 81.5271 21.0103C81.3952 20.8407 81.3292 20.5922 81.3292 20.2648V17.7137H80.6261V17.3675H81.3292V16.3887H81.7532ZM84.9014 21.2611C84.5763 21.2611 84.2819 21.1811 84.018 21.0209C83.7566 20.8607 83.5528 20.6381 83.4068 20.3531C83.2607 20.0657 83.1877 19.7442 83.1877 19.3885V19.2366C83.1877 18.8691 83.2584 18.5382 83.3997 18.2437C83.5434 17.9493 83.7424 17.7184 83.9968 17.5512C84.2512 17.3816 84.5268 17.2968 84.8236 17.2968C85.2877 17.2968 85.6551 17.4558 85.926 17.7738C86.1993 18.0894 86.3359 18.5217 86.3359 19.0705V19.3072H83.6082V19.3885C83.6082 19.8219 83.7318 20.1835 83.9792 20.4732C84.2289 20.7606 84.5421 20.9043 84.919 20.9043C85.1452 20.9043 85.3442 20.8631 85.5162 20.7806C85.6905 20.6982 85.8483 20.5663 85.9896 20.3849L86.2546 20.5863C85.9437 21.0362 85.4926 21.2611 84.9014 21.2611ZM84.8236 17.6572C84.5056 17.6572 84.2371 17.7738 84.018 18.007C83.8013 18.2402 83.6694 18.5535 83.6223 18.9468H85.9154V18.9009C85.9036 18.5334 85.7988 18.2343 85.601 18.0034C85.4031 17.7726 85.144 17.6572 84.8236 17.6572ZM88.9258 17.7278C88.8363 17.7114 88.7409 17.7031 88.6396 17.7031C88.3758 17.7031 88.152 17.7773 87.9683 17.9257C87.7869 18.0718 87.6573 18.2849 87.5796 18.5652V21.1905H87.1591V17.3675H87.5725L87.5796 17.9752C87.8034 17.5229 88.1626 17.2968 88.6573 17.2968C88.775 17.2968 88.8681 17.3121 88.9364 17.3427L88.9258 17.7278Z" fill="#3B1D8F"/>
</svg>
